<svg width="44" height="48" viewBox="0 0 44 48" fill="none" xmlns="http://www.w3.org/2000/svg">
<path d="M10.8396 11.8453C10.8396 5.3029 15.6937 0 21.6802 0C27.6686 0 32.5207 5.3029 32.5207 11.8453H10.8396ZM10.8396 35.535C10.8396 28.9936 15.6937 23.6897 21.6802 23.6897C15.6937 23.6897 10.8396 18.3878 10.8396 11.8453C4.85311 11.8453 0 17.1483 0 23.6897C0 30.2331 4.85311 35.535 10.8396 35.535ZM10.8396 35.535C10.8396 42.0785 15.6937 47.3804 21.6802 47.3804C27.6686 47.3804 32.5207 42.0785 32.5207 35.535H10.8396ZM21.6802 23.6897C27.6686 23.6897 32.5207 28.9936 32.5207 35.535C38.5082 35.535 43.3622 30.2331 43.3622 23.6897C43.3622 17.1483 38.5082 11.8453 32.5207 11.8453C32.5207 18.3878 27.6686 23.6897 21.6802 23.6897Z" fill="#1B2856"/>
</svg>
